<svg width="200" height="75" viewBox="0 0 200 75" fill="none" xmlns="http://www.w3.org/2000/svg">
<ellipse cx="100" cy="37.5" rx="100" ry="37.5" fill="white" fill-opacity="0.34"/>
<path d="M37.32 44.5V31.46H40.34L43.08 37.94L44.2 40.82H44.28C44.2133 40.1267 44.1267 39.3533 44.02 38.5C43.9133 37.6467 43.86 36.84 43.86 36.08V31.46H46.68V44.5H43.66L40.92 38L39.8 35.16H39.72C39.7867 35.8667 39.8733 36.64 39.98 37.48C40.0867 38.3067 40.14 39.1067 40.14 39.88V44.5H37.32ZM49.4322 44.5V31.46H58.0722V33.94H52.3922V36.56H57.2122V39.02H52.3922V42.02H58.2722V44.5H49.4322ZM61.0044 44.5L59.2644 31.46H62.3244L62.7244 38.4C62.7244 38.7733 62.731 39.14 62.7444 39.5C62.7577 39.8467 62.7644 40.2 62.7644 40.56C62.7777 40.9067 62.7844 41.28 62.7844 41.68H62.8644C62.9177 41.28 62.9777 40.9067 63.0444 40.56C63.1244 40.2 63.2044 39.84 63.2844 39.48C63.3644 39.12 63.4377 38.76 63.5044 38.4L64.3844 34.76H66.2644L67.0844 38.4C67.1644 38.76 67.2377 39.1133 67.3044 39.46C67.371 39.8067 67.4444 40.1667 67.5244 40.54C67.6044 40.9 67.671 41.28 67.7244 41.68H67.8044C67.8177 41.28 67.8244 40.9 67.8244 40.54C67.8377 40.1667 67.8444 39.8067 67.8444 39.46C67.8577 39.1133 67.871 38.76 67.8844 38.4L68.2444 31.46H71.1044L69.5044 44.5H66.3444L65.5844 40.46C65.5044 40.0467 65.431 39.6267 65.3644 39.2C65.2977 38.7733 65.251 38.3667 65.2244 37.98H65.1644C65.1244 38.3667 65.0777 38.7733 65.0244 39.2C64.971 39.6267 64.9044 40.0467 64.8244 40.46L64.0644 44.5H61.0044ZM76.7366 44.74C75.8566 44.74 74.9832 44.58 74.1166 44.26C73.2632 43.94 72.4832 43.4733 71.7766 42.86L73.4766 40.84C73.9699 41.24 74.5099 41.5667 75.0966 41.82C75.6966 42.0733 76.3099 42.2 76.9366 42.2C77.5632 42.2 78.0232 42.0933 78.3166 41.88C78.6232 41.6667 78.7766 41.3933 78.7766 41.06C78.7766 40.7533 78.6966 40.5133 78.5366 40.34C78.3766 40.1533 78.1432 39.9933 77.8366 39.86C77.5299 39.7133 77.1699 39.5533 76.7566 39.38L75.0766 38.66C74.5966 38.4733 74.1432 38.2267 73.7166 37.92C73.2899 37.6 72.9432 37.2133 72.6766 36.76C72.4232 36.2933 72.2966 35.74 72.2966 35.1C72.2966 34.38 72.4966 33.7333 72.8966 33.16C73.3099 32.5733 73.8699 32.1067 74.5766 31.76C75.2966 31.4 76.1299 31.22 77.0766 31.22C77.8632 31.22 78.6366 31.3667 79.3966 31.66C80.1566 31.9533 80.8299 32.38 81.4166 32.94L79.9166 34.8C79.4632 34.4667 79.0099 34.2133 78.5566 34.04C78.1032 33.8533 77.5566 33.76 76.9166 33.76C76.4366 33.76 76.0432 33.86 75.7366 34.06C75.4299 34.26 75.2766 34.5533 75.2766 34.94C75.2766 35.1933 75.3699 35.4067 75.5566 35.58C75.7432 35.7533 75.9966 35.9067 76.3166 36.04C76.6366 36.1733 77.0032 36.32 77.4166 36.48L78.9966 37.16C79.5832 37.3733 80.0832 37.64 80.4966 37.96C80.9099 38.2667 81.2299 38.6467 81.4566 39.1C81.6832 39.5533 81.7966 40.0867 81.7966 40.7C81.7966 41.42 81.5966 42.0867 81.1966 42.7C80.8099 43.3133 80.2366 43.8067 79.4766 44.18C78.7299 44.5533 77.8166 44.74 76.7366 44.74ZM84.5088 44.5V31.46H87.4488V42.02H93.2488V44.5H84.5088ZM95.8009 44.5V31.46H104.441V33.94H98.7609V36.56H103.581V39.02H98.7609V42.02H104.641V44.5H95.8009ZM110.073 44.5V33.94H106.173V31.46H116.933V33.94H113.033V44.5H110.073ZM121.665 44.5V33.94H117.765V31.46H128.525V33.94H124.625V44.5H121.665ZM130.578 44.5V31.46H139.218V33.94H133.538V36.56H138.358V39.02H133.538V42.02H139.418V44.5H130.578ZM141.73 44.5V31.46H146.35C147.27 31.46 148.11 31.5867 148.87 31.84C149.63 32.08 150.236 32.5 150.69 33.1C151.156 33.6867 151.39 34.4933 151.39 35.52C151.39 36.52 151.156 37.3333 150.69 37.96C150.236 38.5867 149.63 39.0533 148.87 39.36C148.11 39.6533 147.27 39.8 146.35 39.8H144.67V44.5H141.73ZM144.67 37.46H146.11C146.883 37.46 147.47 37.3 147.87 36.98C148.283 36.6467 148.49 36.16 148.49 35.52C148.49 34.88 148.283 34.4333 147.87 34.18C147.47 33.9267 146.883 33.8 146.11 33.8H144.67V37.46ZM145.81 39.04L147.85 37.14L152.01 44.5H148.71L145.81 39.04ZM153.402 47.7L159.982 30.3H162.442L155.862 47.7H153.402Z" fill="white"/>
</svg>
