<svg width="100" height="100" viewBox="0 0 100 100" fill="none" xmlns="http://www.w3.org/2000/svg">
<path fill-rule="evenodd" clip-rule="evenodd" d="M50 16.6666C31.5905 16.6666 16.6666 31.5904 16.6666 49.9999C16.6666 68.4094 31.5905 83.3333 50 83.3333C68.4095 83.3333 83.3333 68.4094 83.3333 49.9999C83.3333 31.5904 68.4095 16.6666 50 16.6666ZM8.33331 49.9999C8.33331 26.9881 26.9881 8.33325 50 8.33325C73.0118 8.33325 91.6667 26.9881 91.6667 49.9999C91.6667 73.0118 73.0118 91.6666 50 91.6666C26.9881 91.6666 8.33331 73.0118 8.33331 49.9999ZM57.1129 34.5536C58.7401 36.1808 58.7401 38.819 57.1129 40.4462L47.5592 49.9999L57.1129 59.5536C58.7401 61.1808 58.7401 63.819 57.1129 65.4462C55.4857 67.0734 52.8476 67.0734 51.2204 65.4462L38.7204 52.9462C37.0932 51.319 37.0932 48.6808 38.7204 47.0536L51.2204 34.5536C52.8476 32.9265 55.4857 32.9265 57.1129 34.5536Z" fill="white"/>
</svg>
